<svg width="127" height="34" viewBox="0 0 127 34" fill="none" xmlns="http://www.w3.org/2000/svg">
<g filter="url(#filter0_f_6_198)">
<path d="M14.4396 11.5825C13.6037 9.44866 12.3277 7.99675 10.5678 7.99675C8.45598 7.99675 6.76209 10.4166 6.76209 15.0583C6.76209 19.7 8.80796 21.7679 11.4478 21.7679C13.6037 21.7679 16.0455 20.47 16.8155 17.5881H18.3334C17.2774 21.2839 13.8016 23.2858 10.1279 23.2858C5.79415 23.2858 1.63641 20.382 1.63641 15.0583C1.63641 9.51465 5.75015 6.80882 10.1499 6.80882C13.1197 6.80882 15.6275 7.66677 17.2994 9.91063C17.9374 10.7466 17.6514 11.8245 16.6175 12.4185C16.3315 12.5945 16.0235 12.6605 15.7595 12.6605C15.2096 12.6605 14.7256 12.3085 14.4396 11.5825ZM19.5778 7.09481V6.91882L24.0215 5.95088V22.0099L24.6595 22.6038V22.8018H19.5778V22.6258L20.2158 22.0759V7.51278L19.5778 7.09481ZM38.7149 17.6541H30.0474C30.2674 19.216 30.5314 21.5919 33.5012 21.7019C35.4591 21.7679 37.329 20.624 38.1209 19.26L38.4069 19.546C37.549 21.2839 35.6571 23.0438 32.8413 23.0438C29.2115 23.0438 26.0217 20.36 26.0217 16.9722C26.0217 13.4744 28.7495 11.5605 32.4673 11.4065C35.6571 11.2745 38.6489 13.3204 38.7149 17.6541ZM30.0474 17.0602H34.9751C34.8871 16.0922 35.0411 12.7045 32.5553 12.7045C30.3774 12.7045 30.0035 16.0482 30.0474 17.0602ZM49.9689 22.8018H49.9249C48.319 22.8238 47.2631 21.7679 47.2631 20.162V20.118C46.3831 22.3618 44.7772 23.3298 43.3253 23.3298C41.6754 23.3298 40.2455 22.0979 40.2455 20.118C40.2455 17.9621 42.7754 17.1482 46.1632 16.2902C46.8451 16.1142 47.2631 15.5643 47.2631 14.8823C47.2411 13.6064 47.0431 12.2865 45.5692 12.3745C44.5353 12.4185 44.1393 13.2104 43.9633 14.0024C43.7653 14.8603 43.1713 15.3883 42.3794 15.3883C41.4555 15.3883 40.9055 14.7503 41.1475 14.0024C41.6534 12.4185 43.1053 11.4285 45.6352 11.3405C48.407 11.2525 50.8709 12.3525 50.8709 14.9483V21.6799C50.8709 22.0099 50.9369 22.1419 51.0468 22.1419C51.2228 22.1419 51.4868 21.7019 51.5968 21.0419H51.9268C51.7728 22.5818 51.3548 22.7798 49.9689 22.8018ZM47.2631 18.8641V16.5982C43.8093 17.3022 43.2373 19.238 43.7653 20.338C44.0293 20.9099 44.6013 21.3059 45.2172 21.3059C45.9872 21.3059 46.8451 20.646 47.2631 18.8641ZM53.0315 11.6265H55.7154C56.6393 11.6265 57.2553 12.2425 57.2553 13.1664V14.7503C57.7172 13.1664 59.2571 11.6045 60.709 11.3185C61.523 11.1646 62.205 11.8905 62.205 12.8804C62.205 13.7164 61.809 14.0024 60.775 13.9364C60.6211 13.9364 60.4671 13.9144 60.2691 13.9144C58.1572 13.9144 57.2553 14.3983 57.2553 16.5542V22.1859L58.1352 22.6918V22.8238H52.5696V22.6918L53.4495 22.1419V12.0225L53.0315 11.6925V11.6265ZM72.6754 18.4241L76.8992 7.40279H80.287L80.7929 22.4058L81.4749 22.6478V22.8018H76.2392V22.6698L76.8552 22.3838L76.3712 11.5605L72.1035 22.8018H70.6076L65.6139 11.4945L65.0859 22.3398L65.7459 22.7138V22.8018H63.348V22.7138L64.03 22.3398L64.7339 7.40279H67.5498L72.6754 18.4241ZM82.9522 17.2362C82.9522 13.2764 85.79 11.1866 89.3098 11.1866C92.8076 11.1866 95.6674 13.2764 95.6674 17.2362C95.6674 21.1959 92.8076 23.3078 89.3098 23.3078C85.79 23.3078 82.9522 21.1959 82.9522 17.2362ZM87.066 17.2362C87.066 20.9319 88.0779 22.6918 89.3098 22.6918C90.5418 22.6918 91.5537 20.9319 91.5537 17.2362C91.5537 13.5404 90.5418 11.8025 89.3098 11.8025C88.0779 11.8025 87.066 13.5404 87.066 17.2362ZM97.0236 17.2362C97.0236 13.2764 99.8614 11.1866 103.381 11.1866C106.879 11.1866 109.739 13.2764 109.739 17.2362C109.739 21.1959 106.879 23.3078 103.381 23.3078C99.8614 23.3078 97.0236 21.1959 97.0236 17.2362ZM101.137 17.2362C101.137 20.9319 102.149 22.6918 103.381 22.6918C104.613 22.6918 105.625 20.9319 105.625 17.2362C105.625 13.5404 104.613 11.8025 103.381 11.8025C102.149 11.8025 101.137 13.5404 101.137 17.2362ZM123.656 15.8283V22.1419L124.536 22.6918V22.8238H118.904V22.6918L119.784 22.1419V15.2123C119.784 14.2664 119.542 12.9244 118.069 12.9244C116.287 12.9244 115.539 14.5743 115.539 15.8503V22.1419L116.419 22.6918V22.8238H110.853V22.6918L111.733 22.0979V12.0665L111.095 11.7365V11.6485H115.539V14.1124C116.287 12.3305 117.871 11.2745 119.454 11.2745C122.16 11.2745 123.656 13.4304 123.656 15.8283Z" fill="#F9F8FC"/>
</g>
<path d="M14.4396 11.5825C13.6037 9.44866 12.3277 7.99675 10.5678 7.99675C8.45598 7.99675 6.76209 10.4166 6.76209 15.0583C6.76209 19.7 8.80796 21.7679 11.4478 21.7679C13.6037 21.7679 16.0455 20.47 16.8155 17.5881H18.3334C17.2774 21.2839 13.8016 23.2858 10.1279 23.2858C5.79415 23.2858 1.63641 20.382 1.63641 15.0583C1.63641 9.51465 5.75015 6.80882 10.1499 6.80882C13.1197 6.80882 15.6275 7.66677 17.2994 9.91063C17.9374 10.7466 17.6514 11.8245 16.6175 12.4185C16.3315 12.5945 16.0235 12.6605 15.7595 12.6605C15.2096 12.6605 14.7256 12.3085 14.4396 11.5825ZM19.5778 7.09481V6.91882L24.0215 5.95088V22.0099L24.6595 22.6038V22.8018H19.5778V22.6258L20.2158 22.0759V7.51278L19.5778 7.09481ZM38.7149 17.6541H30.0474C30.2674 19.216 30.5314 21.5919 33.5012 21.7019C35.4591 21.7679 37.329 20.624 38.1209 19.26L38.4069 19.546C37.549 21.2839 35.6571 23.0438 32.8413 23.0438C29.2115 23.0438 26.0217 20.36 26.0217 16.9722C26.0217 13.4744 28.7495 11.5605 32.4673 11.4065C35.6571 11.2745 38.6489 13.3204 38.7149 17.6541ZM30.0474 17.0602H34.9751C34.8871 16.0922 35.0411 12.7045 32.5553 12.7045C30.3774 12.7045 30.0035 16.0482 30.0474 17.0602ZM49.9689 22.8018H49.9249C48.319 22.8238 47.2631 21.7679 47.2631 20.162V20.118C46.3831 22.3618 44.7772 23.3298 43.3253 23.3298C41.6754 23.3298 40.2455 22.0979 40.2455 20.118C40.2455 17.9621 42.7754 17.1482 46.1632 16.2902C46.8451 16.1142 47.2631 15.5643 47.2631 14.8823C47.2411 13.6064 47.0431 12.2865 45.5692 12.3745C44.5353 12.4185 44.1393 13.2104 43.9633 14.0024C43.7653 14.8603 43.1713 15.3883 42.3794 15.3883C41.4555 15.3883 40.9055 14.7503 41.1475 14.0024C41.6534 12.4185 43.1053 11.4285 45.6352 11.3405C48.407 11.2525 50.8709 12.3525 50.8709 14.9483V21.6799C50.8709 22.0099 50.9369 22.1419 51.0468 22.1419C51.2228 22.1419 51.4868 21.7019 51.5968 21.0419H51.9268C51.7728 22.5818 51.3548 22.7798 49.9689 22.8018ZM47.2631 18.8641V16.5982C43.8093 17.3022 43.2373 19.238 43.7653 20.338C44.0293 20.9099 44.6013 21.3059 45.2172 21.3059C45.9872 21.3059 46.8451 20.646 47.2631 18.8641ZM53.0315 11.6265H55.7154C56.6393 11.6265 57.2553 12.2425 57.2553 13.1664V14.7503C57.7172 13.1664 59.2571 11.6045 60.709 11.3185C61.523 11.1646 62.205 11.8905 62.205 12.8804C62.205 13.7164 61.809 14.0024 60.775 13.9364C60.6211 13.9364 60.4671 13.9144 60.2691 13.9144C58.1572 13.9144 57.2553 14.3983 57.2553 16.5542V22.1859L58.1352 22.6918V22.8238H52.5696V22.6918L53.4495 22.1419V12.0225L53.0315 11.6925V11.6265ZM72.6754 18.4241L76.8992 7.40279H80.287L80.7929 22.4058L81.4749 22.6478V22.8018H76.2392V22.6698L76.8552 22.3838L76.3712 11.5605L72.1035 22.8018H70.6076L65.6139 11.4945L65.0859 22.3398L65.7459 22.7138V22.8018H63.348V22.7138L64.03 22.3398L64.7339 7.40279H67.5498L72.6754 18.4241ZM82.9522 17.2362C82.9522 13.2764 85.79 11.1866 89.3098 11.1866C92.8076 11.1866 95.6674 13.2764 95.6674 17.2362C95.6674 21.1959 92.8076 23.3078 89.3098 23.3078C85.79 23.3078 82.9522 21.1959 82.9522 17.2362ZM87.066 17.2362C87.066 20.9319 88.0779 22.6918 89.3098 22.6918C90.5418 22.6918 91.5537 20.9319 91.5537 17.2362C91.5537 13.5404 90.5418 11.8025 89.3098 11.8025C88.0779 11.8025 87.066 13.5404 87.066 17.2362ZM97.0236 17.2362C97.0236 13.2764 99.8614 11.1866 103.381 11.1866C106.879 11.1866 109.739 13.2764 109.739 17.2362C109.739 21.1959 106.879 23.3078 103.381 23.3078C99.8614 23.3078 97.0236 21.1959 97.0236 17.2362ZM101.137 17.2362C101.137 20.9319 102.149 22.6918 103.381 22.6918C104.613 22.6918 105.625 20.9319 105.625 17.2362C105.625 13.5404 104.613 11.8025 103.381 11.8025C102.149 11.8025 101.137 13.5404 101.137 17.2362ZM123.656 15.8283V22.1419L124.536 22.6918V22.8238H118.904V22.6918L119.784 22.1419V15.2123C119.784 14.2664 119.542 12.9244 118.069 12.9244C116.287 12.9244 115.539 14.5743 115.539 15.8503V22.1419L116.419 22.6918V22.8238H110.853V22.6918L111.733 22.0979V12.0665L111.095 11.7365V11.6485H115.539V14.1124C116.287 12.3305 117.871 11.2745 119.454 11.2745C122.16 11.2745 123.656 13.4304 123.656 15.8283Z" fill="#F9F8FC"/>
<defs>
<filter id="filter0_f_6_198" x="0.0364136" y="4.35087" width="126.1" height="20.5789" filterUnits="userSpaceOnUse" color-interpolation-filters="sRGB">
<feFlood flood-opacity="0" result="BackgroundImageFix"/>
<feBlend mode="normal" in="SourceGraphic" in2="BackgroundImageFix" result="shape"/>
<feGaussianBlur stdDeviation="0.8" result="effect1_foregroundBlur_6_198"/>
</filter>
</defs>
</svg>
