<svg width="394" height="1416" viewBox="0 0 394 1416" fill="none" xmlns="http://www.w3.org/2000/svg">
<g clip-path="url(#clip0_8_284)">
<rect width="394" height="1416" fill="#DAD7E0"/>
<g clip-path="url(#clip1_8_284)">
<rect width="1263" height="1416" transform="translate(-650 -2)" fill="#DAD7E0"/>
<g clip-path="url(#clip2_8_284)">
<rect width="1263" height="1437" transform="translate(-650 -2)" fill="white"/>
<ellipse cx="-548.696" cy="237.5" rx="288.999" ry="525.303" fill="#651D71"/>
<g filter="url(#filter1_df_8_284)">
<ellipse cx="-259.698" cy="223.928" rx="217.517" ry="395.175" fill="#B797EC"/>
</g>
<g filter="url(#filter2_df_8_284)">
<ellipse cx="74.4715" cy="236.702" rx="334.169" ry="609.128" fill="#B797EC"/>
</g>
<g filter="url(#filter3_df_8_284)">
<ellipse cx="469.597" cy="496.958" rx="437.226" ry="795.938" fill="#651D71"/>
</g>
<g filter="url(#filter4_df_8_284)">
<ellipse cx="168.758" cy="618.305" rx="334.607" ry="609.128" fill="#5A3EB5"/>
</g>
<g filter="url(#filter5_f_8_284)">
<path d="M175.997 877.073C68.1683 838.433 -108.158 790.22 -217.653 763.975C-326.16 798.873 -383.242 437.149 -491.496 400.545C-591.531 366.721 -751 586.053 -751 586.053V1646L899 1615.66L857.831 1120.51C857.831 1120.51 779.037 686.35 719.521 671.567C568.735 634.113 549.924 562.86 397.108 557.09C314.873 553.984 255.98 905.735 175.997 877.073Z" fill="#10123B"/>
</g>
</g>
</g>
<g filter="url(#filter6_b_8_284)">
<rect x="2" y="1335" width="392" height="81" fill="#808080" fill-opacity="0.3" style="mix-blend-mode:luminosity"/>
<rect x="2.16875" y="1335.17" width="391.663" height="80.6625" stroke="url(#paint0_linear_8_284)" stroke-width="0.3375"/>
<path d="M57.8333 1374.25C57.8333 1373.62 58.1297 1373.03 58.6333 1372.65L64.6333 1368.15C65.3444 1367.62 66.3222 1367.62 67.0333 1368.15L73.0333 1372.65C73.5369 1373.03 73.8333 1373.62 73.8333 1374.25V1380.25C73.8333 1381.91 72.4902 1383.25 70.8333 1383.25H60.8333C59.1765 1383.25 57.8333 1381.91 57.8333 1380.25L57.8333 1374.25Z" stroke="white" stroke-width="1.5"/>
<g opacity="0.4">
<path d="M195.504 1367.5C195.504 1367.09 195.168 1366.75 194.754 1366.75C194.339 1366.75 194.004 1367.09 194.004 1367.5H195.504ZM194.004 1370.32C194.004 1370.73 194.339 1371.07 194.754 1371.07C195.168 1371.07 195.504 1370.73 195.504 1370.32H194.004ZM201.472 1370.32C201.472 1370.73 201.808 1371.07 202.222 1371.07C202.636 1371.07 202.972 1370.73 202.972 1370.32H201.472ZM202.972 1367.5C202.972 1367.09 202.636 1366.75 202.222 1366.75C201.808 1366.75 201.472 1367.09 201.472 1367.5H202.972ZM191.02 1380.7L191.77 1380.7L191.77 1380.7L191.02 1380.7ZM191.02 1371.36L191.77 1371.36V1371.36H191.02ZM194.004 1367.5V1370.32H195.504V1367.5H194.004ZM202.222 1369.31H203.156V1367.81H202.222V1369.31ZM201.472 1368.56V1370.32H202.972V1368.56H201.472ZM202.972 1368.56V1367.5H201.472V1368.56H202.972ZM190.27 1380.7C190.27 1382.66 191.859 1384.25 193.82 1384.25V1382.75C192.688 1382.75 191.77 1381.83 191.77 1380.7L190.27 1380.7ZM205.206 1380.7C205.206 1381.83 204.288 1382.75 203.156 1382.75V1384.25C205.117 1384.25 206.706 1382.66 206.706 1380.7H205.206ZM206.706 1371.36C206.706 1369.4 205.117 1367.81 203.156 1367.81V1369.31C204.288 1369.31 205.206 1370.23 205.206 1371.36H206.706ZM191.77 1371.36C191.77 1370.23 192.688 1369.31 193.82 1369.31V1367.81C191.859 1367.81 190.27 1369.4 190.27 1371.36H191.77ZM191.02 1374.08H205.956V1372.58H191.02V1374.08ZM205.206 1371.36V1380.7H206.706V1371.36H205.206ZM191.77 1380.7L191.77 1371.36L190.27 1371.36L190.27 1380.7L191.77 1380.7ZM193.82 1369.31H202.222V1367.81H193.82V1369.31ZM203.156 1382.75H193.82V1384.25H203.156V1382.75Z" fill="white"/>
</g>
<g opacity="0.4">
<path d="M335.77 1369.47L336.145 1370.12L336.145 1370.12L335.77 1369.47ZM338.957 1370.33L339.606 1369.95L339.606 1369.95L338.957 1370.33ZM339.54 1371.34L338.891 1371.71L338.891 1371.71L339.54 1371.34ZM338.686 1374.53L339.061 1375.18L339.061 1375.18L338.686 1374.53ZM338.686 1376.47L338.311 1377.12L338.686 1376.47ZM339.54 1379.66L340.19 1380.04L340.19 1380.04L339.54 1379.66ZM338.957 1380.67L338.307 1380.3L338.307 1380.3L338.957 1380.67ZM335.77 1381.53L336.145 1380.88L336.145 1380.88L335.77 1381.53ZM326.562 1381.53L326.187 1380.88L326.187 1380.88L326.562 1381.53ZM323.374 1380.67L324.024 1380.3L324.024 1380.3L323.374 1380.67ZM322.791 1379.66L322.142 1380.04L322.142 1380.04L322.791 1379.66ZM323.645 1376.47L323.27 1375.82L323.27 1375.82L323.645 1376.47ZM323.645 1374.53L323.27 1375.18L323.27 1375.18L323.645 1374.53ZM322.791 1371.34L322.142 1370.96L322.142 1370.96L322.791 1371.34ZM323.375 1370.33L324.024 1370.7L324.024 1370.7L323.375 1370.33ZM326.562 1369.47L326.187 1370.12L326.187 1370.12L326.562 1369.47ZM330.582 1365.42C328.879 1365.42 327.499 1366.8 327.499 1368.5H328.999C328.999 1367.63 329.708 1366.92 330.582 1366.92V1365.42ZM331.749 1365.42H330.582V1366.92H331.749V1365.42ZM334.832 1368.5C334.832 1366.8 333.452 1365.42 331.749 1365.42V1366.92C332.623 1366.92 333.332 1367.63 333.332 1368.5H334.832ZM339.606 1369.95C338.755 1368.48 336.869 1367.97 335.395 1368.82L336.145 1370.12C336.902 1369.69 337.87 1369.95 338.307 1370.7L339.606 1369.95ZM340.19 1370.96L339.606 1369.95L338.307 1370.7L338.891 1371.71L340.19 1370.96ZM339.061 1375.18C340.536 1374.32 341.041 1372.44 340.19 1370.96L338.891 1371.71C339.328 1372.47 339.069 1373.44 338.311 1373.88L339.061 1375.18ZM340.19 1380.04C341.041 1378.56 340.536 1376.68 339.061 1375.82L338.311 1377.12C339.069 1377.56 339.328 1378.53 338.891 1379.29L340.19 1380.04ZM339.606 1381.05L340.19 1380.04L338.891 1379.29L338.307 1380.3L339.606 1381.05ZM335.395 1382.18C336.869 1383.03 338.755 1382.52 339.606 1381.05L338.307 1380.3C337.87 1381.05 336.902 1381.31 336.145 1380.88L335.395 1382.18ZM331.749 1385.58C333.452 1385.58 334.832 1384.2 334.832 1382.5H333.332C333.332 1383.37 332.623 1384.08 331.749 1384.08V1385.58ZM330.582 1385.58H331.749V1384.08H330.582V1385.58ZM327.499 1382.5C327.499 1384.2 328.879 1385.58 330.582 1385.58V1384.08C329.708 1384.08 328.999 1383.37 328.999 1382.5H327.499ZM322.725 1381.05C323.576 1382.52 325.462 1383.03 326.937 1382.18L326.187 1380.88C325.43 1381.31 324.461 1381.05 324.024 1380.3L322.725 1381.05ZM322.142 1380.04L322.725 1381.05L324.024 1380.3L323.441 1379.29L322.142 1380.04ZM323.27 1375.82C321.795 1376.68 321.29 1378.56 322.142 1380.04L323.441 1379.29C323.003 1378.53 323.263 1377.56 324.02 1377.12L323.27 1375.82ZM322.142 1370.96C321.29 1372.44 321.795 1374.32 323.27 1375.18L324.02 1373.88C323.263 1373.44 323.003 1372.47 323.441 1371.71L322.142 1370.96ZM322.725 1369.95L322.142 1370.96L323.441 1371.71L324.024 1370.7L322.725 1369.95ZM326.937 1368.82C325.462 1367.97 323.576 1368.48 322.725 1369.95L324.024 1370.7C324.461 1369.95 325.43 1369.69 326.187 1370.12L326.937 1368.82ZM326.187 1370.12C327.437 1370.85 328.999 1369.94 328.999 1368.5H327.499C327.499 1368.79 327.187 1368.97 326.937 1368.82L326.187 1370.12ZM324.02 1377.12C325.27 1376.4 325.27 1374.6 324.02 1373.88L323.27 1375.18C323.52 1375.32 323.52 1375.68 323.27 1375.82L324.02 1377.12ZM328.999 1382.5C328.999 1381.06 327.437 1380.15 326.187 1380.88L326.937 1382.18C327.187 1382.03 327.499 1382.21 327.499 1382.5H328.999ZM336.145 1380.88C334.895 1380.15 333.332 1381.06 333.332 1382.5H334.832C334.832 1382.21 335.145 1382.03 335.395 1382.18L336.145 1380.88ZM338.311 1373.88C337.061 1374.6 337.061 1376.4 338.311 1377.12L339.061 1375.82C338.811 1375.68 338.811 1375.32 339.061 1375.18L338.311 1373.88ZM333.332 1368.5C333.332 1369.94 334.895 1370.85 336.145 1370.12L335.395 1368.82C335.145 1368.97 334.832 1368.79 334.832 1368.5H333.332ZM332.961 1375.5C332.961 1376.49 332.157 1377.3 331.166 1377.3V1378.8C332.986 1378.8 334.461 1377.32 334.461 1375.5H332.961ZM331.166 1377.3C330.174 1377.3 329.37 1376.49 329.37 1375.5H327.87C327.87 1377.32 329.346 1378.8 331.166 1378.8V1377.3ZM329.37 1375.5C329.37 1374.51 330.174 1373.7 331.166 1373.7V1372.2C329.346 1372.2 327.87 1373.68 327.87 1375.5H329.37ZM331.166 1373.7C332.157 1373.7 332.961 1374.51 332.961 1375.5H334.461C334.461 1373.68 332.986 1372.2 331.166 1372.2V1373.7Z" fill="white"/>
</g>
</g>
</g>
<defs>
<filter id="filter1_df_8_284" x="-717.215" y="-411.247" width="915.033" height="1270.35" filterUnits="userSpaceOnUse" color-interpolation-filters="sRGB">
<feFlood flood-opacity="0" result="BackgroundImageFix"/>
<feColorMatrix in="SourceAlpha" type="matrix" values="0 0 0 0 0 0 0 0 0 0 0 0 0 0 0 0 0 0 127 0" result="hardAlpha"/>
<feOffset/>
<feGaussianBlur stdDeviation="40"/>
<feComposite in2="hardAlpha" operator="out"/>
<feColorMatrix type="matrix" values="0 0 0 0 0.788235 0 0 0 0 0.698039 0 0 0 0 0.780392 0 0 0 1 0"/>
<feBlend mode="normal" in2="BackgroundImageFix" result="effect1_dropShadow_8_284"/>
<feBlend mode="normal" in="SourceGraphic" in2="effect1_dropShadow_8_284" result="shape"/>
<feGaussianBlur stdDeviation="120" result="effect2_foregroundBlur_8_284"/>
</filter>
<filter id="filter2_df_8_284" x="-499.697" y="-612.427" width="1148.34" height="1698.26" filterUnits="userSpaceOnUse" color-interpolation-filters="sRGB">
<feFlood flood-opacity="0" result="BackgroundImageFix"/>
<feColorMatrix in="SourceAlpha" type="matrix" values="0 0 0 0 0 0 0 0 0 0 0 0 0 0 0 0 0 0 127 0" result="hardAlpha"/>
<feOffset/>
<feGaussianBlur stdDeviation="40"/>
<feComposite in2="hardAlpha" operator="out"/>
<feColorMatrix type="matrix" values="0 0 0 0 0.788235 0 0 0 0 0.698039 0 0 0 0 0.780392 0 0 0 1 0"/>
<feBlend mode="normal" in2="BackgroundImageFix" result="effect1_dropShadow_8_284"/>
<feBlend mode="normal" in="SourceGraphic" in2="effect1_dropShadow_8_284" result="shape"/>
<feGaussianBlur stdDeviation="120" result="effect2_foregroundBlur_8_284"/>
</filter>
<filter id="filter3_df_8_284" x="-207.629" y="-538.98" width="1354.45" height="2071.88" filterUnits="userSpaceOnUse" color-interpolation-filters="sRGB">
<feFlood flood-opacity="0" result="BackgroundImageFix"/>
<feColorMatrix in="SourceAlpha" type="matrix" values="0 0 0 0 0 0 0 0 0 0 0 0 0 0 0 0 0 0 127 0" result="hardAlpha"/>
<feOffset/>
<feGaussianBlur stdDeviation="40"/>
<feComposite in2="hardAlpha" operator="out"/>
<feColorMatrix type="matrix" values="0 0 0 0 0.788235 0 0 0 0 0.698039 0 0 0 0 0.780392 0 0 0 1 0"/>
<feBlend mode="normal" in2="BackgroundImageFix" result="effect1_dropShadow_8_284"/>
<feBlend mode="normal" in="SourceGraphic" in2="effect1_dropShadow_8_284" result="shape"/>
<feGaussianBlur stdDeviation="120" result="effect2_foregroundBlur_8_284"/>
</filter>
<filter id="filter4_df_8_284" x="-405.85" y="-230.823" width="1149.21" height="1698.26" filterUnits="userSpaceOnUse" color-interpolation-filters="sRGB">
<feFlood flood-opacity="0" result="BackgroundImageFix"/>
<feColorMatrix in="SourceAlpha" type="matrix" values="0 0 0 0 0 0 0 0 0 0 0 0 0 0 0 0 0 0 127 0" result="hardAlpha"/>
<feOffset/>
<feGaussianBlur stdDeviation="40"/>
<feComposite in2="hardAlpha" operator="out"/>
<feColorMatrix type="matrix" values="0 0 0 0 0.788235 0 0 0 0 0.698039 0 0 0 0 0.780392 0 0 0 1 0"/>
<feBlend mode="normal" in2="BackgroundImageFix" result="effect1_dropShadow_8_284"/>
<feBlend mode="normal" in="SourceGraphic" in2="effect1_dropShadow_8_284" result="shape"/>
<feGaussianBlur stdDeviation="120" result="effect2_foregroundBlur_8_284"/>
</filter>
<filter id="filter5_f_8_284" x="-991" y="157" width="2130" height="1729" filterUnits="userSpaceOnUse" color-interpolation-filters="sRGB">
<feFlood flood-opacity="0" result="BackgroundImageFix"/>
<feBlend mode="normal" in="SourceGraphic" in2="BackgroundImageFix" result="shape"/>
<feGaussianBlur stdDeviation="120" result="effect1_foregroundBlur_8_284"/>
</filter>
<filter id="filter6_b_8_284" x="-31.75" y="1301.25" width="460.5" height="148.5" filterUnits="userSpaceOnUse" color-interpolation-filters="sRGB">
<feFlood flood-opacity="0" result="BackgroundImageFix"/>
<feGaussianBlur in="BackgroundImageFix" stdDeviation="16.875"/>
<feComposite in2="SourceAlpha" operator="in" result="effect1_backgroundBlur_8_284"/>
<feBlend mode="normal" in="SourceGraphic" in2="effect1_backgroundBlur_8_284" result="shape"/>
</filter>
<linearGradient id="paint0_linear_8_284" x1="29.4615" y1="1335" x2="38.8646" y2="1439.76" gradientUnits="userSpaceOnUse">
<stop stop-color="white" stop-opacity="0.4"/>
<stop offset="0.405687" stop-color="white" stop-opacity="0.01"/>
<stop offset="0.574372" stop-color="white" stop-opacity="0.01"/>
<stop offset="1" stop-color="white" stop-opacity="0.1"/>
</linearGradient>
<clipPath id="clip0_8_284">
<rect width="394" height="1416" fill="white"/>
</clipPath>
<clipPath id="clip1_8_284">
<rect width="1263" height="1416" fill="white" transform="translate(-650 -2)"/>
</clipPath>
<clipPath id="clip2_8_284">
<rect width="1263" height="1437" fill="white" transform="translate(-650 -2)"/>
</clipPath>
</defs>
</svg>
